<svg width="20" height="20" viewBox="0 0 20 20" fill="none" xmlns="http://www.w3.org/2000/svg">
<g clip-path="url(#clip0)">
<path d="M479.6 399.716L398.516 318.632L336.148 292.865C356.915 263.333 368.04 228.102 368 192C368 94.953 289.047 16 192 16C94.953 16 16 94.953 16 192C16 289.047 94.953 368 192 368C228.416 368.042 263.939 356.724 293.619 335.623L319.319 397.823L400.4 478.911C405.6 484.111 411.773 488.237 418.568 491.051C425.362 493.866 432.644 495.314 439.998 495.315C447.352 495.315 454.635 493.867 461.429 491.052C468.224 488.238 474.397 484.114 479.598 478.914C484.798 473.714 488.923 467.54 491.738 460.746C494.552 453.952 496.001 446.669 496.001 439.315C496.001 431.961 494.553 424.679 491.739 417.884C488.925 411.09 484.8 404.916 479.6 399.716ZM48 192C48 112.6 112.6 48 192 48C271.4 48 336 112.6 336 192C336 271.4 271.4 336 192 336C112.6 336 48 271.4 48 192ZM456.971 456.284C452.466 460.778 446.363 463.302 440 463.302C433.637 463.302 427.534 460.778 423.029 456.284L346.457 379.712L322.563 321.877L380.4 345.771L456.973 422.343C461.467 426.848 463.99 432.951 463.99 439.314C463.989 445.677 461.465 451.78 456.971 456.284Z" fill="black"/>
<path d="M18.6667 16.8421C18.6667 17.6796 18.2452 18.4828 17.4951 19.0751C16.7449 19.6673 15.7275 20 14.6667 20H5.33333C4.27247 20 3.25505 19.6673 2.50491 19.0751C1.75476 18.4828 1.33333 17.6796 1.33333 16.8421V4.21053H0V1.05263H6L7.33333 0H12.6667L14 1.05263H20V4.21053H18.6667V16.8421ZM2.66667 4.21053V16.8421C2.66667 17.4004 2.94761 17.9359 3.44772 18.3307C3.94781 18.7256 4.62609 18.9474 5.33333 18.9474H14.6667C15.3739 18.9474 16.0521 18.7256 16.5523 18.3307C17.0524 17.9359 17.3333 17.4004 17.3333 16.8421V4.21053H2.66667ZM18.6667 3.15789V2.10526H13.3333L12 1.05263H8L6.66667 2.10526H1.33333V3.15789H18.6667ZM5.33333 6.31579H6.66667V16.8421H5.33333V6.31579ZM13.3333 6.31579H14.6667V16.8421H13.3333V6.31579Z" fill="#FD0303"/>
</g>
<defs>
<clipPath id="clip0">
<rect width="20" height="20" fill="white"/>
</clipPath>
</defs>
</svg>
