<svg width="23" height="23" viewBox="0 0 23 23" fill="none" xmlns="http://www.w3.org/2000/svg">
<path d="M21.4667 19.3684C21.4667 20.3315 20.982 21.2553 20.1193 21.9363C19.2567 22.6174 18.0866 23 16.8667 23H6.13333C4.91334 23 3.74331 22.6174 2.88064 21.9363C2.01797 21.2553 1.53333 20.3315 1.53333 19.3684V4.84211H0V1.21053H6.9L8.43333 0H14.5667L16.1 1.21053H23V4.84211H21.4667V19.3684ZM3.06667 4.84211V19.3684C3.06667 20.0105 3.38976 20.6263 3.96488 21.0803C4.53999 21.5344 5.32001 21.7895 6.13333 21.7895H16.8667C17.6799 21.7895 18.46 21.5344 19.0351 21.0803C19.6103 20.6263 19.9333 20.0105 19.9333 19.3684V4.84211H3.06667ZM21.4667 3.63158V2.42105H15.3333L13.8 1.21053H9.2L7.66667 2.42105H1.53333V3.63158H21.4667ZM6.13333 7.26316H7.66667V19.3684H6.13333V7.26316ZM15.3333 7.26316H16.8667V19.3684H15.3333V7.26316Z" fill="#FD0303"/>
</svg>
