<svg width="20" height="20" viewBox="0 0 20 20" fill="none" xmlns="http://www.w3.org/2000/svg">
<path fill-rule="evenodd" clip-rule="evenodd" d="M10 0C4.48 0 0 4.48 0 10C0 15.52 4.48 20 10 20C15.52 20 20 15.52 20 10C20 4.48 15.52 0 10 0ZM10 18C5.59 18 2 14.41 2 10C2 5.59 5.59 2 10 2C14.41 2 18 5.59 18 10C18 14.41 14.41 18 10 18Z" fill="#C29979"/>
<path fill-rule="evenodd" clip-rule="evenodd" d="M11.49 9.37997C11.92 8.15997 11.66 6.73997 10.68 5.75997C10.151 5.23361 9.46639 4.8919 8.72776 4.78561C7.98913 4.67932 7.23592 4.81411 6.58 5.16997L8.93 7.51997L7.52 8.92997L5.17 6.57997C4.46 7.89997 4.65 9.56997 5.76 10.68C6.74 11.66 8.16 11.92 9.38 11.49L12.79 14.9C12.99 15.1 13.3 15.1 13.5 14.9L14.9 13.5C15.1 13.3 15.1 12.99 14.9 12.79L11.49 9.37997V9.37997Z" fill="#A22522"/>
</svg>
