<svg width="22" height="22" viewBox="0 0 22 22" fill="none" xmlns="http://www.w3.org/2000/svg">
<path fill-rule="evenodd" clip-rule="evenodd" d="M16.4731 14.8335L22.6598 21.0203C22.8773 21.238 22.9994 21.533 22.9993 21.8407C22.9992 22.1483 22.8768 22.4433 22.6592 22.6608C22.4416 22.8782 22.1466 23.0004 21.8389 23.0002C21.5313 23.0001 21.2363 22.8778 21.0188 22.6602L14.8321 16.4733C12.9827 17.9058 10.657 18.58 8.32818 18.3586C5.99937 18.1372 3.84236 17.0369 2.29597 15.2815C0.749581 13.5262 -0.070034 11.2476 0.00386314 8.90944C0.0777603 6.57123 1.03962 4.34899 2.69376 2.69481C4.34791 1.04062 6.57009 0.0787388 8.90824 0.00483982C11.2464 -0.0690592 13.5249 0.750576 15.2802 2.297C17.0355 3.84343 18.1357 6.00049 18.3571 8.32937C18.5785 10.6582 17.9044 12.984 16.472 14.8335H16.4731ZM9.19969 16.0996C11.0296 16.0996 12.7846 15.3727 14.0785 14.0787C15.3724 12.7847 16.0994 11.0297 16.0994 9.19975C16.0994 7.3698 15.3724 5.61479 14.0785 4.32082C12.7846 3.02685 11.0296 2.2999 9.19969 2.2999C7.36979 2.2999 5.61483 3.02685 4.32089 4.32082C3.02695 5.61479 2.30002 7.3698 2.30002 9.19975C2.30002 11.0297 3.02695 12.7847 4.32089 14.0787C5.61483 15.3727 7.36979 16.0996 9.19969 16.0996V16.0996Z" fill="black"/>
</svg>
