<svg width="32" height="32" viewBox="0 0 32 32" fill="none" xmlns="http://www.w3.org/2000/svg">
<rect width="32" height="32" fill="#E5E5E5"/>
<path d="M23.906 3.969C23.3651 3.97031 22.8299 4.0787 22.3311 4.28792C21.8323 4.49714 21.3799 4.80305 21 5.188L5.187 21L5.125 21.313L4.031 26.813L3.719 28.281L5.188 27.969L10.688 26.875L11 26.812L26.813 11C27.199 10.6207 27.5055 10.1684 27.7148 9.66935C27.924 9.17033 28.0318 8.63462 28.0318 8.0935C28.0318 7.55238 27.924 7.01667 27.7148 6.51765C27.5055 6.01863 27.199 5.56628 26.813 5.187C26.4329 4.80211 25.9803 4.49632 25.4813 4.28727C24.9824 4.07822 24.447 3.97005 23.906 3.969V3.969ZM23.906 5.875C24.41 5.875 24.918 6.105 25.406 6.594C26.379 7.566 26.379 8.621 25.406 9.594L24.688 10.281L21.718 7.312L22.406 6.594C22.895 6.105 23.402 5.875 23.906 5.875V5.875ZM20.313 8.719L23.281 11.688L11.188 23.78C10.5351 22.5027 9.49577 21.464 8.218 20.812L20.313 8.719ZM6.938 22.438C7.52984 22.6761 8.06745 23.0314 8.51854 23.4825C8.96963 23.9336 9.3249 24.4712 9.563 25.063L6.281 25.719L6.938 22.438Z" fill="black"/>
</svg>
