<svg width="21" height="21" viewBox="0 0 21 21" fill="none" xmlns="http://www.w3.org/2000/svg">
<path d="M17.3251 0.969C16.8801 0.970077 16.4398 1.05924 16.0295 1.23136C15.6193 1.40347 15.2471 1.65512 14.9346 1.9718L1.92659 14.9794L1.87559 15.2368L0.975655 19.7614L0.719 20.969L1.92742 20.7123L6.45178 19.8124L6.70844 19.7605L19.7164 6.75297C20.0339 6.44097 20.2861 6.06885 20.4582 5.65833C20.6303 5.24781 20.719 4.80712 20.719 4.36197C20.719 3.91683 20.6303 3.47614 20.4582 3.06562C20.2861 2.6551 20.0339 2.28298 19.7164 1.97097C19.4037 1.65435 19.0314 1.40279 18.6209 1.23082C18.2105 1.05885 17.7701 0.969861 17.3251 0.969ZM17.3251 2.53695C17.7397 2.53695 18.1576 2.72616 18.559 3.12843C19.3594 3.92803 19.3594 4.79592 18.559 5.59634L17.9684 6.1615L15.5252 3.71908L16.0911 3.12843C16.4934 2.72616 16.9105 2.53695 17.3251 2.53695ZM14.3694 4.87654L16.8109 7.31895L6.86309 17.2663C6.32605 16.2155 5.47104 15.3611 4.41993 14.8247L14.3694 4.87654ZM3.36699 16.1623C3.85384 16.3582 4.29609 16.6504 4.66716 17.0215C5.03823 17.3926 5.33048 17.8349 5.52634 18.3217L2.82653 18.8614L3.36699 16.1623Z" fill="#05630E"/>
</svg>
