<svg width="24" height="24" viewBox="0 0 24 24" fill="none" xmlns="http://www.w3.org/2000/svg">
<path d="M19.816 0.969C19.3043 0.970239 18.798 1.07278 18.3261 1.27071C17.8543 1.46864 17.4263 1.75804 17.0669 2.12222L2.10773 17.0809L2.04908 17.377L1.01415 22.5802L0.719 23.969L2.10868 23.6738L7.3117 22.6389L7.60685 22.5793L22.566 7.62057C22.9311 7.26176 23.2211 6.83382 23.4191 6.36173C23.617 5.88964 23.719 5.38284 23.719 4.87092C23.719 4.359 23.617 3.85221 23.4191 3.38011C23.2211 2.90802 22.9311 2.48008 22.566 2.12127C22.2064 1.75715 21.7782 1.46786 21.3062 1.27009C20.8342 1.07232 20.3277 0.96999 19.816 0.969ZM19.816 2.77214C20.2928 2.77214 20.7733 2.98973 21.235 3.45234C22.1554 4.37189 22.1554 5.36995 21.235 6.29045L20.5558 6.94037L17.7461 4.13159L18.397 3.45234C18.8596 2.98973 19.3392 2.77214 19.816 2.77214ZM16.417 5.46267L19.2247 8.27144L7.7847 19.7109C7.1671 18.5025 6.18385 17.5199 4.97507 16.9031L16.417 5.46267ZM3.76419 18.4413C4.32407 18.6666 4.83265 19.0027 5.25938 19.4294C5.68612 19.8562 6.0222 20.3648 6.24745 20.9247L3.14266 21.5453L3.76419 18.4413Z" fill="#05630E"/>
</svg>
